<svg xmlns:mydata="http://www.w3.org/2000/svg" mydata:contrastcolor="ffffff" mydata:template="Contrast" mydata:presentation="2.5" mydata:layouttype="undefined" mydata:specialfontid="undefined" mydata:id1="037" mydata:id2="036" mydata:companyname="Resupplify" mydata:companytagline="" version="1.1" xmlns="http://www.w3.org/2000/svg" xmlns:xlink="http://www.w3.org/1999/xlink" viewBox="0 0 550 470" style="height:755px"><g fill="#1e90fa" fill-rule="none" stroke="none" stroke-width="1" stroke-linecap="butt" stroke-linejoin="miter" stroke-miterlimit="10" stroke-dasharray="" stroke-dashoffset="0" font-family="none" font-weight="none" font-size="none" text-anchor="none" style="mix-blend-mode:normal"><g data-paper-data="{&quot;isGlobalGroup&quot;:true,&quot;bounds&quot;:{&quot;x&quot;:65,&quot;y&quot;:126.54476581664667,&quot;width&quot;:420,&quot;height&quot;:216.91046836670662}}"><g data-paper-data="{&quot;isPrimaryText&quot;:true}" fill-rule="nonzero" id="element-id-71405"><path d="M69.72018,327.83312v15.11895h-4.72018v-34.86223h12.62708c3.81767,0 6.73284,0.8466 8.74551,2.53979c2.01266,1.69319 3.019,4.15312 3.019,7.37977c0,1.78904 -0.46723,3.34645 -1.40168,4.67226c-0.93445,1.3258 -2.29619,2.38006 -4.08523,3.16276c1.91682,0.62297 3.29454,1.63329 4.13315,3.03098c0.83861,1.39768 1.25792,3.12682 1.25792,5.1874v3.28256c0,1.0862 0.1198,2.06059 0.3594,2.92316c0.2396,0.86257 0.65491,1.56541 1.24594,2.10851v0.57505h-4.86394c-0.62297,-0.5431 -1.02231,-1.34178 -1.19801,-2.39603c-0.17571,-1.05425 -0.26356,-2.14045 -0.26356,-3.2586v-3.18672c0,-1.88488 -0.55109,-3.40236 -1.65326,-4.55246c-1.10217,-1.15009 -2.57973,-1.72514 -4.43265,-1.72514zM69.72018,324.11928h7.42769c2.66758,0 4.5884,-0.50716 5.76245,-1.52148c1.17405,-1.01432 1.76108,-2.55976 1.76108,-4.63632c0,-1.96474 -0.57105,-3.48622 -1.71316,-4.56444c-1.14211,-1.07821 -2.91916,-1.61732 -5.33117,-1.61732h-7.9069z" data-paper-data="{&quot;glyphName&quot;:&quot;R&quot;,&quot;glyphIndex&quot;:0,&quot;firstGlyphOfWord&quot;:true,&quot;word&quot;:1}" fill="#1e90fa" id="element-id-19651"/><path d="M133.5504,326.77887h-15.98152v12.48331h18.42547v3.68989h-23.14564v-34.88619h22.88208v3.71385h-18.1619v11.2853h15.98152z" data-paper-data="{&quot;glyphName&quot;:&quot;E&quot;,&quot;glyphIndex&quot;:1,&quot;word&quot;:1}" fill="#1e90fa" id="element-id-10783"/><path d="M175.86428,334.15864c0,-1.59735 -0.59901,-2.93514 -1.79702,-4.01335c-1.19801,-1.07821 -3.32249,-1.98471 -6.37344,-2.71949c-3.68989,-0.87854 -6.56911,-2.1724 -8.63769,-3.88157c-2.06857,-1.70917 -3.10286,-3.85761 -3.10286,-6.44532c0,-2.7155 1.11415,-4.98374 3.34246,-6.80472c2.22831,-1.82098 5.11552,-2.73147 8.66165,-2.73147c3.81767,0 6.85664,1.04627 9.11689,3.1388c2.26025,2.09253 3.35045,4.52051 3.27058,7.28393l-0.04792,0.14376h-4.50454c0,-2.04461 -0.67488,-3.69787 -2.02464,-4.95978c-1.34976,-1.26191 -3.28655,-1.89286 -5.81037,-1.89286c-2.34811,0 -4.14912,0.53112 -5.40305,1.59336c-1.25392,1.06224 -1.88088,2.44794 -1.88088,4.15711c0,1.51749 0.67888,2.78339 2.03663,3.79771c1.35775,1.01432 3.5621,1.90484 6.61304,2.67157c3.67391,0.91049 6.46928,2.25227 8.3861,4.02533c1.91682,1.77306 2.87524,3.96942 2.87524,6.58908c0,2.81134 -1.15009,5.0716 -3.45028,6.78076c-2.30019,1.70917 -5.30321,2.56375 -9.00907,2.56375c-3.48223,0 -6.56113,-0.94244 -9.23669,-2.82731c-2.67557,-1.88488 -3.97342,-4.40869 -3.89355,-7.57145l0.04792,-0.14376h4.50454c0,2.23629 0.82264,3.93748 2.46791,5.10354c1.64527,1.16607 3.6819,1.7491 6.10988,1.7491c2.38006,0 4.26493,-0.50317 5.65463,-1.5095c1.3897,-1.00633 2.08455,-2.37207 2.08455,-4.09721z" data-paper-data="{&quot;glyphName&quot;:&quot;S&quot;,&quot;glyphIndex&quot;:2,&quot;word&quot;:1}" fill="#1e90fa" id="element-id-6725"/><path d="M228.28941,308.06588v23.64881c0,3.8017 -1.23396,6.70888 -3.70187,8.72155c-2.46791,2.01266 -5.69057,3.019 -9.66798,3.019c-3.83365,0 -6.94449,-1.01033 -9.33253,-3.03098c-2.38804,-2.02065 -3.58206,-4.92384 -3.58206,-8.70957v-23.64881h4.72018v23.64881c0,2.63563 0.75076,4.63632 2.25227,6.00205c1.50151,1.36574 3.48223,2.04861 5.94215,2.04861c2.58771,0 4.67625,-0.68287 6.26562,-2.04861c1.58937,-1.36574 2.38405,-3.36642 2.38405,-6.00205v-23.64881z" data-paper-data="{&quot;glyphName&quot;:&quot;U&quot;,&quot;glyphIndex&quot;:3,&quot;word&quot;:1}" fill="#1e90fa" id="element-id-57731"/><path d="M256.05939,328.95926v13.99281h-4.72018v-34.88619h13.34588c3.72183,0 6.61304,0.95841 8.67363,2.87524c2.06059,1.91682 3.09088,4.44064 3.09088,7.57145c0,3.17873 -1.03029,5.71453 -3.09088,7.60739c-2.06059,1.89286 -4.95179,2.83929 -8.67363,2.83929zM256.05939,325.26937h8.62571c2.36408,0 4.12916,-0.63495 5.29523,-1.90484c1.16607,-1.2699 1.7491,-2.87124 1.7491,-4.80404c0,-1.9328 -0.58703,-3.54612 -1.76108,-4.83998c-1.17405,-1.29386 -2.93514,-1.94078 -5.28324,-1.94078h-8.62571z" data-paper-data="{&quot;glyphName&quot;:&quot;P&quot;,&quot;glyphIndex&quot;:4,&quot;word&quot;:1}" fill="#1e90fa" id="element-id-3985"/><path d="M302.82988,328.95926v13.99281h-4.72018v-34.88619h13.34588c3.72183,0 6.61304,0.95841 8.67363,2.87524c2.06059,1.91682 3.09088,4.44064 3.09088,7.57145c0,3.17873 -1.03029,5.71453 -3.09088,7.60739c-2.06059,1.89286 -4.95179,2.83929 -8.67363,2.83929zM302.82988,325.26937h8.62571c2.36408,0 4.12916,-0.63495 5.29523,-1.90484c1.16607,-1.2699 1.7491,-2.87124 1.7491,-4.80404c0,-1.9328 -0.58703,-3.54612 -1.76108,-4.83998c-1.17405,-1.29386 -2.93514,-1.94078 -5.28324,-1.94078h-8.62571z" data-paper-data="{&quot;glyphName&quot;:&quot;P&quot;,&quot;glyphIndex&quot;:5,&quot;word&quot;:1}" fill="#1e90fa" id="element-id-18853"/><path d="M349.60038,339.26218h16.50864v3.68989h-21.22882v-34.88619h4.72018z" data-paper-data="{&quot;glyphName&quot;:&quot;L&quot;,&quot;glyphIndex&quot;:6,&quot;word&quot;:1}" fill="#1e90fa" id="element-id-27614"/><path d="M391.69861,342.95207h-4.74414v-34.88619h4.74414z" data-paper-data="{&quot;glyphName&quot;:&quot;I&quot;,&quot;glyphIndex&quot;:7,&quot;word&quot;:1}" fill="#1e90fa" id="element-id-52945"/><path d="M436.55228,327.52164h-15.90964v15.43043h-4.72018v-34.88619h23.07376v3.71385h-18.35359v12.02807h15.90964z" data-paper-data="{&quot;glyphName&quot;:&quot;F&quot;,&quot;glyphIndex&quot;:8,&quot;word&quot;:1}" fill="#1e90fa" id="element-id-37657"/><path d="M470.50402,325.7965l9.10491,-17.73062h5.39107l-12.24371,22.61852v12.26767h-4.69622v-12.57915l-12.05203,-22.30703h5.39107z" data-paper-data="{&quot;glyphName&quot;:&quot;Y&quot;,&quot;glyphIndex&quot;:9,&quot;lastGlyphOfWord&quot;:true,&quot;word&quot;:1}" fill="#1e90fa" id="element-id-6474"/></g><g data-paper-data="{&quot;fillRule&quot;:&quot;nonzero&quot;,&quot;fillRuleOriginal&quot;:&quot;nonzero&quot;,&quot;isIcon&quot;:true,&quot;iconStyle&quot;:&quot;standalone&quot;,&quot;selectedEffects&quot;:{&quot;container&quot;:&quot;enclosed_circle_outline2&quot;,&quot;transformation&quot;:&quot;&quot;,&quot;pattern&quot;:&quot;&quot;},&quot;bounds&quot;:{&quot;x&quot;:207.3903036274174,&quot;y&quot;:126.54476581664667,&quot;width&quot;:135.21939274516515,&quot;height&quot;:141.1763659930792},&quot;widthRatioIconToContainer&quot;:0.7235327401028666,&quot;heightRatioIconToContainer&quot;:0.9561240764248283,&quot;relativeBoundsIconToContainer&quot;:{&quot;top&quot;:-0.021937961787585832,&quot;left&quot;:-0.00010279867262279152},&quot;iconType&quot;:&quot;initial&quot;,&quot;initialText&quot;:&quot;R&quot;,&quot;rawInitialId&quot;:419,&quot;blockLetter&quot;:&quot;O&quot;,&quot;blockLetterId&quot;:0,&quot;monogramSpecial&quot;:&quot;volume&quot;,&quot;suitableAsStandaloneIcon&quot;:true}" fill-rule="evenodd" id="element-id-5658"><g data-paper-data="{&quot;isPathIcon&quot;:true}" id="element-id-412"><path d="M308.56985,153.97264l13.17394,-5.83097l-46.86579,-21.5969l-46.64979,21.3809l13.17394,6.04697l33.04385,-15.11793h1.29599z" fill="#1e90fa" id="element-id-12014"/><path d="M273.58201,142.74269l-30.66786,13.82194v27.64388l13.82194,-6.26297v-14.46994l0.864,-1.51199l15.98193,-7.12697z" fill="#1e90fa" id="element-id-71496"/><path d="M307.05786,156.56463l-30.45186,-13.82194v12.09395l15.76593,7.34297l1.08,1.29599v14.46994l11.44595,5.39998l2.15999,0.863z" fill="#1e90fa" id="element-id-57150"/><path d="M323.68778,255.26419l-16.41393,-52.69776l0.864,-1.72799l15.76593,-7.34297v-43.19381l-13.82194,6.26297v30.01987l-0.864,1.51199l-32.61185,14.90193v12.09495l14.68593,-6.69597l1.94399,0.864l16.41393,52.26577z" fill="#1e90fa" id="element-id-87871"/><path d="M226.06822,255.04819l13.82294,6.26297v-59.17673l2.15899,-1.51199l31.53186,14.47094v-12.09495l-33.04385,-14.90193v-0.216l-0.647,-0.864v-30.23586l-13.82294,-6.26297z" fill="#1e90fa" id="element-id-30553"/><path d="M342.6097,200.11244c0,-9.16996 -1.77199,-17.94192 -5.31398,-26.31688c-2.41399,-5.70597 -5.52798,-10.95195 -9.34296,-15.73593v4.65198c2.67799,3.78098 4.93298,7.83796 6.76697,12.17295c3.39532,8.0273 5.09298,16.43659 5.09298,25.22789c0,8.79129 -1.69766,17.20026 -5.09298,25.22689c-2.67999,6.33597 -6.26131,12.07961 -10.74395,17.23092l0.969,3.11399c5.21398,-5.69797 9.33096,-12.11628 12.35094,-19.25491c3.54198,-8.37596 5.31398,-17.14792 5.31398,-26.31688z" fill="#1e90fa" id="element-id-63215"/><path d="M207.3903,200.11244c0,9.16896 1.77199,17.94092 5.31398,26.31688c2.40732,5.69197 5.51231,10.92562 9.31496,15.70093v-4.65698c-2.66599,-3.76898 -4.91198,-7.81396 -6.73897,-12.13395c-3.39532,-8.02663 -5.09298,-16.43559 -5.09298,-25.22689c0,-8.79196 1.69799,-17.20092 5.09298,-25.22789c1.82699,-4.31998 4.07298,-8.36496 6.73897,-12.13395v-4.65698c-3.80298,4.77598 -6.90697,10.00896 -9.31496,15.70193c-3.54265,8.37463 -5.31398,17.14692 -5.31398,26.31688z" fill="#1e90fa" id="element-id-44046"/><path d="M244.64214,186.8005l30.45186,13.60594l29.80387,-13.82194l-12.95794,-6.04697l-16.19793,7.55897h-1.29599l-16.19793,-7.55897z" fill="#1e90fa" id="element-id-69067"/><path d="M242.91414,261.31116l13.82194,-6.26297v-44.2748h-0.216l-13.60594,-6.26297z" fill="#1e90fa" id="element-id-85718"/><path d="M306.19386,260.87916l-15.33393,-49.02578l-9.71896,4.53498l11.87895,38.44383z" fill="#1e90fa" id="element-id-6499"/><path d="M275,267.72113c-8.86063,0 -17.35092,-1.65399 -25.47089,-4.96198l3.57998,-1.62199c7.01297,2.52499 14.30994,3.78698 21.8909,3.78698c7.61297,0 14.93993,-1.27299 21.9799,-3.81898l0.485,0.222l1.22599,0.563l1.22699,0.564l0.612,0.281c-8.13696,3.32399 -16.64693,4.98598 -25.52989,4.98598z" fill="#1e90fa" id="element-id-58256"/></g></g></g></g></svg>