<svg
  xmlns:mydata="http://www.w3.org/2000/svg"
  mydata:contrastcolor="ffffff"
  mydata:template="Contrast"
  mydata:presentation="2.5"
  mydata:layouttype="undefined"
  mydata:specialfontid="undefined"
  mydata:id1="037"
  mydata:id2="036"
  mydata:companyname="Resupplify"
  mydata:companytagline=""
  version="1.1"
  xmlns="http://www.w3.org/2000/svg"
  xmlns:xlink="http://www.w3.org/1999/xlink"
  viewBox="0 0 550 470"
  style="height:755px"
><g
    fill="#1e90fa"
    fill-rule="none"
    stroke="none"
    stroke-width="1"
    stroke-linecap="butt"
    stroke-linejoin="miter"
    stroke-miterlimit="10"
    stroke-dasharray=""
    stroke-dashoffset="0"
    font-family="none"
    font-weight="none"
    font-size="none"
    text-anchor="none"
    style="mix-blend-mode:normal"
  ><g
      data-paper-data="{&quot;isGlobalGroup&quot;:true,&quot;bounds&quot;:{&quot;x&quot;:65,&quot;y&quot;:126.54476581664667,&quot;width&quot;:420,&quot;height&quot;:216.91046836670662}}"
    ><g
        data-paper-data="{&quot;isPrimaryText&quot;:true}"
        fill-rule="nonzero"
        id="element-id-71405"
      ></g><g
        data-paper-data="{&quot;fillRule&quot;:&quot;nonzero&quot;,&quot;fillRuleOriginal&quot;:&quot;nonzero&quot;,&quot;isIcon&quot;:true,&quot;iconStyle&quot;:&quot;standalone&quot;,&quot;selectedEffects&quot;:{&quot;container&quot;:&quot;enclosed_circle_outline2&quot;,&quot;transformation&quot;:&quot;&quot;,&quot;pattern&quot;:&quot;&quot;},&quot;bounds&quot;:{&quot;x&quot;:207.3903036274174,&quot;y&quot;:126.54476581664667,&quot;width&quot;:135.21939274516515,&quot;height&quot;:141.1763659930792},&quot;widthRatioIconToContainer&quot;:0.7235327401028666,&quot;heightRatioIconToContainer&quot;:0.9561240764248283,&quot;relativeBoundsIconToContainer&quot;:{&quot;top&quot;:-0.021937961787585832,&quot;left&quot;:-0.00010279867262279152},&quot;iconType&quot;:&quot;initial&quot;,&quot;initialText&quot;:&quot;R&quot;,&quot;rawInitialId&quot;:419,&quot;blockLetter&quot;:&quot;O&quot;,&quot;blockLetterId&quot;:0,&quot;monogramSpecial&quot;:&quot;volume&quot;,&quot;suitableAsStandaloneIcon&quot;:true}"
        fill-rule="evenodd"
        id="element-id-5658"
      ><g data-paper-data="{&quot;isPathIcon&quot;:true}" id="element-id-412"><path
            d="M308.56985,153.97264l13.17394,-5.83097l-46.86579,-21.5969l-46.64979,21.3809l13.17394,6.04697l33.04385,-15.11793h1.29599z"
            fill="#1e90fa"
            id="element-id-12014"
          /><path
            d="M273.58201,142.74269l-30.66786,13.82194v27.64388l13.82194,-6.26297v-14.46994l0.864,-1.51199l15.98193,-7.12697z"
            fill="#1e90fa"
            id="element-id-71496"
          /><path
            d="M307.05786,156.56463l-30.45186,-13.82194v12.09395l15.76593,7.34297l1.08,1.29599v14.46994l11.44595,5.39998l2.15999,0.863z"
            fill="#1e90fa"
            id="element-id-57150"
          /><path
            d="M323.68778,255.26419l-16.41393,-52.69776l0.864,-1.72799l15.76593,-7.34297v-43.19381l-13.82194,6.26297v30.01987l-0.864,1.51199l-32.61185,14.90193v12.09495l14.68593,-6.69597l1.94399,0.864l16.41393,52.26577z"
            fill="#1e90fa"
            id="element-id-87871"
          /><path
            d="M226.06822,255.04819l13.82294,6.26297v-59.17673l2.15899,-1.51199l31.53186,14.47094v-12.09495l-33.04385,-14.90193v-0.216l-0.647,-0.864v-30.23586l-13.82294,-6.26297z"
            fill="#1e90fa"
            id="element-id-30553"
          /><path
            d="M342.6097,200.11244c0,-9.16996 -1.77199,-17.94192 -5.31398,-26.31688c-2.41399,-5.70597 -5.52798,-10.95195 -9.34296,-15.73593v4.65198c2.67799,3.78098 4.93298,7.83796 6.76697,12.17295c3.39532,8.0273 5.09298,16.43659 5.09298,25.22789c0,8.79129 -1.69766,17.20026 -5.09298,25.22689c-2.67999,6.33597 -6.26131,12.07961 -10.74395,17.23092l0.969,3.11399c5.21398,-5.69797 9.33096,-12.11628 12.35094,-19.25491c3.54198,-8.37596 5.31398,-17.14792 5.31398,-26.31688z"
            fill="#1e90fa"
            id="element-id-63215"
          /><path
            d="M207.3903,200.11244c0,9.16896 1.77199,17.94092 5.31398,26.31688c2.40732,5.69197 5.51231,10.92562 9.31496,15.70093v-4.65698c-2.66599,-3.76898 -4.91198,-7.81396 -6.73897,-12.13395c-3.39532,-8.02663 -5.09298,-16.43559 -5.09298,-25.22689c0,-8.79196 1.69799,-17.20092 5.09298,-25.22789c1.82699,-4.31998 4.07298,-8.36496 6.73897,-12.13395v-4.65698c-3.80298,4.77598 -6.90697,10.00896 -9.31496,15.70193c-3.54265,8.37463 -5.31398,17.14692 -5.31398,26.31688z"
            fill="#1e90fa"
            id="element-id-44046"
          /><path
            d="M244.64214,186.8005l30.45186,13.60594l29.80387,-13.82194l-12.95794,-6.04697l-16.19793,7.55897h-1.29599l-16.19793,-7.55897z"
            fill="#1e90fa"
            id="element-id-69067"
          /><path
            d="M242.91414,261.31116l13.82194,-6.26297v-44.2748h-0.216l-13.60594,-6.26297z"
            fill="#1e90fa"
            id="element-id-85718"
          /><path
            d="M306.19386,260.87916l-15.33393,-49.02578l-9.71896,4.53498l11.87895,38.44383z"
            fill="#1e90fa"
            id="element-id-6499"
          /><path
            d="M275,267.72113c-8.86063,0 -17.35092,-1.65399 -25.47089,-4.96198l3.57998,-1.62199c7.01297,2.52499 14.30994,3.78698 21.8909,3.78698c7.61297,0 14.93993,-1.27299 21.9799,-3.81898l0.485,0.222l1.22599,0.563l1.22699,0.564l0.612,0.281c-8.13696,3.32399 -16.64693,4.98598 -25.52989,4.98598z"
            fill="#1e90fa"
            id="element-id-58256"
          /></g></g></g></g></svg>
